<svg width="24" height="25" viewBox="0 0 24 25" fill="none" xmlns="http://www.w3.org/2000/svg">
<g id="ic:outline-settings">
<path id="Vector" d="M19.4301 13.48C19.4701 13.16 19.5001 12.84 19.5001 12.5C19.5001 12.16 19.4701 11.84 19.4301 11.52L21.5401 9.87005C21.7301 9.72005 21.7801 9.45005 21.6601 9.23005L19.6601 5.77005C19.6011 5.66687 19.5074 5.58807 19.3956 5.54775C19.2838 5.50744 19.1613 5.50825 19.0501 5.55005L16.5601 6.55005C16.0401 6.15005 15.4801 5.82005 14.8701 5.57005L14.4901 2.92005C14.4735 2.80239 14.4146 2.69481 14.3244 2.61748C14.2342 2.54016 14.1189 2.4984 14.0001 2.50005H10.0001C9.75008 2.50005 9.54008 2.68005 9.51008 2.92005L9.13008 5.57005C8.52008 5.82005 7.96008 6.16005 7.44008 6.55005L4.95008 5.55005C4.8921 5.53038 4.83131 5.52024 4.77008 5.52005C4.60008 5.52005 4.43008 5.61005 4.34008 5.77005L2.34008 9.23005C2.21008 9.45005 2.27008 9.72005 2.46008 9.87005L4.57008 11.52C4.53008 11.84 4.50008 12.17 4.50008 12.5C4.50008 12.83 4.53008 13.16 4.57008 13.48L2.46008 15.13C2.27008 15.28 2.22008 15.55 2.34008 15.77L4.34008 19.23C4.39903 19.3332 4.4928 19.412 4.60458 19.4523C4.71636 19.4927 4.83885 19.4918 4.95008 19.45L7.44008 18.45C7.96008 18.85 8.52008 19.18 9.13008 19.43L9.51008 22.08C9.54008 22.32 9.75008 22.5 10.0001 22.5H14.0001C14.2501 22.5 14.4601 22.32 14.4901 22.08L14.8701 19.43C15.4801 19.18 16.0401 18.84 16.5601 18.45L19.0501 19.45C19.1101 19.47 19.1701 19.48 19.2301 19.48C19.4001 19.48 19.5701 19.39 19.6601 19.23L21.6601 15.77C21.7801 15.55 21.7301 15.28 21.5401 15.13L19.4301 13.48ZM17.4501 11.77C17.4901 12.08 17.5001 12.29 17.5001 12.5C17.5001 12.71 17.4801 12.93 17.4501 13.23L17.3101 14.36L18.2001 15.06L19.2801 15.9L18.5801 17.11L17.3101 16.6L16.2701 16.18L15.3701 16.86C14.9401 17.18 14.5301 17.42 14.1201 17.59L13.0601 18.02L12.9001 19.15L12.7001 20.5H11.3001L11.1101 19.15L10.9501 18.02L9.89008 17.59C9.46008 17.41 9.06008 17.18 8.66008 16.88L7.75008 16.18L6.69008 16.61L5.42008 17.12L4.72008 15.91L5.80008 15.07L6.69008 14.37L6.55008 13.24C6.52008 12.93 6.50008 12.7 6.50008 12.5C6.50008 12.3 6.52008 12.07 6.55008 11.77L6.69008 10.64L5.80008 9.94005L4.72008 9.10005L5.42008 7.89005L6.69008 8.40005L7.73008 8.82005L8.63008 8.14005C9.06008 7.82005 9.47008 7.58005 9.88008 7.41005L10.9401 6.98005L11.1001 5.85005L11.3001 4.50005H12.6901L12.8801 5.85005L13.0401 6.98005L14.1001 7.41005C14.5301 7.59005 14.9301 7.82005 15.3301 8.12005L16.2401 8.82005L17.3001 8.39005L18.5701 7.88005L19.2701 9.09005L18.2001 9.94005L17.3101 10.64L17.4501 11.77ZM12.0001 8.50005C9.79008 8.50005 8.00008 10.29 8.00008 12.5C8.00008 14.71 9.79008 16.5 12.0001 16.5C14.2101 16.5 16.0001 14.71 16.0001 12.5C16.0001 10.29 14.2101 8.50005 12.0001 8.50005ZM12.0001 14.5C10.9001 14.5 10.0001 13.6 10.0001 12.5C10.0001 11.4 10.9001 10.5 12.0001 10.5C13.1001 10.5 14.0001 11.4 14.0001 12.5C14.0001 13.6 13.1001 14.5 12.0001 14.5Z" fill="#4C587C"/>
</g>
</svg>
