<svg width="17" height="16" viewBox="0 0 17 16" fill="none" xmlns="http://www.w3.org/2000/svg">
<g id="mdi:web">
<path id="Vector" d="M11.4067 9.33334C11.46 8.89334 11.5 8.45334 11.5 8.00001C11.5 7.54668 11.46 7.10668 11.4067 6.66668H13.66C13.7667 7.09334 13.8334 7.54001 13.8334 8.00001C13.8334 8.46001 13.7667 8.90668 13.66 9.33334M10.2267 13.04C10.6267 12.3 10.9334 11.5 11.1467 10.6667H13.1134C12.4675 11.7789 11.4428 12.6213 10.2267 13.04ZM10.06 9.33334H6.94004C6.87337 8.89334 6.83337 8.45334 6.83337 8.00001C6.83337 7.54668 6.87337 7.10001 6.94004 6.66668H10.06C10.12 7.10001 10.1667 7.54668 10.1667 8.00001C10.1667 8.45334 10.12 8.89334 10.06 9.33334ZM8.50004 13.3067C7.94671 12.5067 7.50004 11.62 7.22671 10.6667H9.77337C9.50004 11.62 9.05337 12.5067 8.50004 13.3067ZM5.83337 5.33334H3.88671C4.5258 4.21803 5.54981 3.37417 6.76671 2.96001C6.36671 3.70001 6.06671 4.50001 5.83337 5.33334ZM3.88671 10.6667H5.83337C6.06671 11.5 6.36671 12.3 6.76671 13.04C5.55222 12.6215 4.52957 11.7788 3.88671 10.6667ZM3.34004 9.33334C3.23337 8.90668 3.16671 8.46001 3.16671 8.00001C3.16671 7.54001 3.23337 7.09334 3.34004 6.66668H5.59337C5.54004 7.10668 5.50004 7.54668 5.50004 8.00001C5.50004 8.45334 5.54004 8.89334 5.59337 9.33334M8.50004 2.68668C9.05337 3.48668 9.50004 4.38001 9.77337 5.33334H7.22671C7.50004 4.38001 7.94671 3.48668 8.50004 2.68668ZM13.1134 5.33334H11.1467C10.9377 4.50775 10.6288 3.71075 10.2267 2.96001C11.4534 3.38001 12.4734 4.22668 13.1134 5.33334ZM8.50004 1.33334C4.81337 1.33334 1.83337 4.33334 1.83337 8.00001C1.83337 9.76812 2.53575 11.4638 3.786 12.7141C4.40505 13.3331 5.13998 13.8242 5.94882 14.1592C6.75765 14.4942 7.62456 14.6667 8.50004 14.6667C10.2682 14.6667 11.9638 13.9643 13.2141 12.7141C14.4643 11.4638 15.1667 9.76812 15.1667 8.00001C15.1667 7.12453 14.9943 6.25762 14.6592 5.44879C14.3242 4.63995 13.8331 3.90502 13.2141 3.28596C12.595 2.66691 11.8601 2.17584 11.0513 1.84081C10.2424 1.50578 9.37552 1.33334 8.50004 1.33334Z" fill="#9CA3AF"/>
</g>
</svg>
